<?xml version="1.0" encoding="UTF-8"?>
<svg id="katman_2" data-name="katman 2" xmlns="http://www.w3.org/2000/svg" viewBox="0 0 254.5 54.44">
  <defs>
    <style>
      .cls-1 {
        fill: #ea517e;
      }
    </style>
  </defs>
  <g id="katman_1" data-name="katman 1">
    <path class="cls-1" d="M30.38,36.55H0v-7.3h254.5v7.3H30.38Z"/>
    <polygon class="cls-1" points="194.5 0 60 0 0 25.25 254.5 25.25 194.5 0"/>
    <g>
      <path class="cls-1" d="M21.21,40.24c0,7.85-4.75,14.21-10.6,14.21S0,48.08,0,40.24h21.21Z"/>
      <path class="cls-1" d="M42.42,40.24c0,7.85-4.75,14.21-10.6,14.21s-10.6-6.36-10.6-14.21h21.21Z"/>
      <path class="cls-1" d="M63.63,40.24c0,7.85-4.75,14.21-10.6,14.21s-10.6-6.36-10.6-14.21h21.21Z"/>
      <path class="cls-1" d="M84.83,40.24c0,7.85-4.75,14.21-10.6,14.21s-10.6-6.36-10.6-14.21h21.21Z"/>
      <path class="cls-1" d="M106.04,40.24c0,7.85-4.75,14.21-10.6,14.21s-10.6-6.36-10.6-14.21h21.21Z"/>
      <path class="cls-1" d="M127.25,40.24c0,7.85-4.75,14.21-10.6,14.21s-10.6-6.36-10.6-14.21h21.21Z"/>
      <path class="cls-1" d="M148.46,40.24c0,7.85-4.75,14.21-10.6,14.21s-10.6-6.36-10.6-14.21h21.21Z"/>
      <path class="cls-1" d="M169.67,40.24c0,7.85-4.75,14.21-10.6,14.21s-10.6-6.36-10.6-14.21h21.21Z"/>
    </g>
    <g>
      <path class="cls-1" d="M190.88,40.24c0,7.85-4.75,14.21-10.6,14.21s-10.6-6.36-10.6-14.21h21.21Z"/>
      <path class="cls-1" d="M212.09,40.24c0,7.85-4.75,14.21-10.6,14.21s-10.6-6.36-10.6-14.21h21.21Z"/>
      <path class="cls-1" d="M233.3,40.24c0,7.85-4.75,14.21-10.6,14.21s-10.6-6.36-10.6-14.21h21.21Z"/>
      <path class="cls-1" d="M254.5,40.24c0,7.85-4.75,14.21-10.6,14.21s-10.6-6.36-10.6-14.21h21.21Z"/>
    </g>
  </g>
</svg>