<?xml version="1.0" encoding="UTF-8"?>
<svg id="katman_1" data-name="katman 1" xmlns="http://www.w3.org/2000/svg" viewBox="0 0 440.38 111.96">
  <defs>
    <style>
      .cls-1 {
        fill: #ea517e;
      }
    </style>
  </defs>
  <g>
    <path class="cls-1" d="M30.38,102.72V36.55H0v-7.3h211.77v7.3H39.1v66.17h-8.72Z"/>
    <path class="cls-1" d="M70.45,103.41c-3.12,0-5.82-.66-8.12-1.97-2.3-1.31-4.09-3.16-5.36-5.56-1.27-2.39-1.91-5.21-1.91-8.44s.64-6.03,1.91-8.41c1.27-2.37,3.05-4.23,5.33-5.56,2.28-1.33,4.98-1.99,8.09-1.99s5.68.67,7.92,1.99c2.24,1.33,3.98,3.23,5.22,5.7,1.23,2.47,1.85,5.42,1.85,8.83v1.71h-21.49c.11,2.43.77,4.24,1.97,5.42,1.2,1.18,2.78,1.77,4.76,1.77,1.44,0,2.65-.3,3.62-.91.97-.61,1.66-1.54,2.08-2.79l8.61.51c-.8,3.04-2.49,5.42-5.07,7.12-2.58,1.71-5.72,2.57-9.4,2.57ZM63.89,84.48h12.71c-.11-2.24-.73-3.91-1.85-5.02-1.12-1.1-2.58-1.65-4.36-1.65s-3.26.58-4.42,1.74-1.85,2.8-2.08,4.93Z"/>
    <path class="cls-1" d="M94.67,102.72v-6.73l16.81-17.44h-16.13v-6.38h26.39v6.73l-17.1,17.44h17.56v6.38h-27.53Z"/>
    <path class="cls-1" d="M146.49,111.96c-2.93,0-5.37-.36-7.32-1.08-1.96-.72-3.52-1.73-4.67-3.02-1.16-1.29-1.97-2.77-2.42-4.45l8.78-.63c.3.99.88,1.77,1.74,2.34.85.57,2.16.86,3.9.86,2.05,0,3.62-.48,4.7-1.45s1.62-2.52,1.62-4.65v-3.25c-.72,1.41-1.88,2.54-3.48,3.39-1.6.86-3.38,1.28-5.36,1.28-2.51,0-4.73-.62-6.67-1.85-1.94-1.23-3.45-2.96-4.53-5.19-1.08-2.22-1.62-4.84-1.62-7.84s.54-5.51,1.62-7.75c1.08-2.24,2.58-4,4.5-5.27,1.92-1.27,4.11-1.91,6.58-1.91,2.24,0,4.13.49,5.67,1.48,1.54.99,2.71,2.3,3.51,3.93v-4.73h8.38v27.53c0,2.74-.63,5.01-1.88,6.81s-3,3.16-5.24,4.08c-2.24.91-4.85,1.37-7.81,1.37ZM146.43,94.97c1.98,0,3.54-.76,4.7-2.28,1.16-1.52,1.74-3.63,1.74-6.33,0-1.79-.26-3.32-.77-4.62-.51-1.29-1.25-2.28-2.22-2.96s-2.12-1.03-3.45-1.03c-2.05,0-3.65.78-4.79,2.34-1.14,1.56-1.71,3.65-1.71,6.27s.59,4.76,1.77,6.3c1.18,1.54,2.75,2.31,4.73,2.31Z"/>
    <path class="cls-1" d="M183.71,103.41c-3.15,0-5.73-.73-7.72-2.2s-2.99-3.51-2.99-6.13.85-4.78,2.54-6.24c1.69-1.46,4.19-2.54,7.5-3.22l9.86-1.94c0-1.98-.45-3.47-1.34-4.47-.89-1.01-2.18-1.51-3.85-1.51s-2.91.37-3.82,1.11c-.91.74-1.5,1.83-1.77,3.28l-8.61-.4c.57-3.34,2.08-5.88,4.53-7.61,2.45-1.73,5.67-2.59,9.66-2.59,4.56,0,7.99,1.08,10.29,3.25,2.3,2.17,3.45,5.34,3.45,9.52v10.43c0,.87.14,1.45.43,1.74.29.28.71.43,1.28.43h.85v5.87c-.27.08-.69.15-1.28.23-.59.08-1.17.11-1.74.11-1.22,0-2.35-.21-3.39-.63-1.05-.42-1.89-1.13-2.54-2.14-.65-1.01-.97-2.44-.97-4.3l.74.57c-.38,1.37-1.05,2.56-2.02,3.59-.97,1.03-2.22,1.82-3.76,2.39-1.54.57-3.32.86-5.33.86ZM185.76,97.54c1.41,0,2.64-.28,3.71-.83,1.06-.55,1.9-1.36,2.51-2.42.61-1.06.91-2.32.91-3.76v-1.48l-6.95,1.48c-1.37.27-2.4.71-3.11,1.34-.7.63-1.05,1.43-1.05,2.42s.34,1.82,1.03,2.39,1.67.86,2.96.86Z"/>
    <path class="cls-1" d="M213.75,102.72V29.25h8.55v50.04h-1.14c.3-1.79.9-3.25,1.8-4.39.89-1.14,2.01-2,3.36-2.56,1.35-.57,2.82-.85,4.42-.85,2.28,0,4.18.49,5.7,1.48,1.52.99,2.67,2.36,3.45,4.1.78,1.75,1.17,3.74,1.17,5.98v19.67h-8.55v-17.61c0-2.28-.35-3.99-1.05-5.13-.7-1.14-1.89-1.71-3.56-1.71s-3.12.59-4.1,1.77c-.99,1.18-1.48,2.95-1.48,5.3v17.38h-8.55Z"/>
    <path class="cls-1" d="M253.93,102.72v-30.55h8.55v30.55h-8.55Z"/>
    <path class="cls-1" d="M254.5,36.58h-30.55v-7.32h30.55v7.32Z"/>
    <path class="cls-1" d="M275.99,102.72v-30.55h7.69l.29,7.35-.8-.34c.42-1.63,1.05-3.02,1.91-4.16.85-1.14,1.89-2.01,3.11-2.62,1.22-.61,2.55-.91,3.99-.91,2.54,0,4.61.74,6.18,2.22,1.58,1.48,2.59,3.48,3.05,5.99l-1.08.06c.34-1.79.94-3.3,1.79-4.53.86-1.23,1.91-2.17,3.16-2.79s2.66-.94,4.22-.94c2.13,0,3.95.44,5.47,1.31,1.52.87,2.7,2.18,3.54,3.9.83,1.73,1.25,3.85,1.25,6.36v19.67h-8.55v-17.27c0-2.39-.36-4.19-1.08-5.39-.72-1.2-1.9-1.8-3.54-1.8-1.03,0-1.9.29-2.62.85-.72.57-1.28,1.4-1.68,2.48s-.6,2.4-.6,3.96v17.16h-7.69v-17.16c0-2.36-.34-4.16-1.03-5.41-.68-1.25-1.86-1.88-3.53-1.88-1.03,0-1.91.29-2.65.85-.74.57-1.3,1.41-1.68,2.51-.38,1.1-.57,2.41-.57,3.93v17.16h-8.55Z"/>
    <path class="cls-1" d="M343.13,103.41c-2.58,0-4.82-.66-6.7-1.97s-3.33-3.15-4.33-5.53-1.51-5.2-1.51-8.46.51-6.09,1.54-8.46c1.03-2.37,2.48-4.22,4.36-5.53s4.09-1.97,6.64-1.97c2.17,0,4.04.45,5.61,1.34,1.58.89,2.76,2.12,3.56,3.68v-14.25h8.55v40.47h-8.15l-.17-4.5c-.84,1.63-2.08,2.91-3.73,3.82-1.65.91-3.54,1.37-5.67,1.37ZM345.93,96.85c1.37,0,2.53-.36,3.48-1.08.95-.72,1.67-1.78,2.17-3.16.49-1.39.74-3.11.74-5.16s-.25-3.83-.74-5.22c-.49-1.39-1.22-2.43-2.17-3.13-.95-.7-2.11-1.05-3.48-1.05-2.01,0-3.61.85-4.79,2.54-1.18,1.69-1.77,3.98-1.77,6.87s.6,5.13,1.8,6.84c1.2,1.71,2.78,2.57,4.76,2.57Z"/>
    <path class="cls-1" d="M382.58,103.41c-3.16,0-5.73-.73-7.72-2.2s-2.99-3.51-2.99-6.13.84-4.78,2.54-6.24c1.69-1.46,4.19-2.54,7.5-3.22l9.86-1.94c0-1.98-.45-3.47-1.34-4.47-.89-1.01-2.18-1.51-3.85-1.51s-2.91.37-3.82,1.11c-.91.74-1.5,1.83-1.77,3.28l-8.61-.4c.57-3.34,2.08-5.88,4.53-7.61,2.45-1.73,5.67-2.59,9.66-2.59,4.56,0,7.99,1.08,10.29,3.25,2.3,2.17,3.45,5.34,3.45,9.52v10.43c0,.87.14,1.45.43,1.74.29.28.71.43,1.28.43h.86v5.87c-.27.08-.69.15-1.28.23-.59.08-1.17.11-1.74.11-1.22,0-2.35-.21-3.39-.63-1.04-.42-1.89-1.13-2.54-2.14-.65-1.01-.97-2.44-.97-4.3l.74.57c-.38,1.37-1.05,2.56-2.02,3.59-.97,1.03-2.22,1.82-3.76,2.39s-3.32.86-5.33.86ZM384.63,97.54c1.41,0,2.64-.28,3.71-.83,1.06-.55,1.9-1.36,2.51-2.42.61-1.06.91-2.32.91-3.76v-1.48l-6.95,1.48c-1.37.27-2.4.71-3.11,1.34s-1.05,1.43-1.05,2.42.34,1.82,1.03,2.39c.68.57,1.67.86,2.96.86Z"/>
    <path class="cls-1" d="M413.07,102.72v-30.55h7.7l.34,8.95-1.08-.29c.3-2.28.92-4.1,1.85-5.47.93-1.37,2.1-2.36,3.51-2.96,1.41-.61,2.94-.91,4.62-.91,2.2,0,4.08.48,5.61,1.42,1.54.95,2.72,2.29,3.53,4.02.82,1.73,1.23,3.77,1.23,6.13v19.67h-8.55v-16.81c0-1.63-.13-3.02-.4-4.16-.27-1.14-.74-2-1.42-2.59-.68-.59-1.63-.88-2.85-.88-1.79,0-3.15.66-4.1,1.97-.95,1.31-1.43,3.2-1.43,5.67v16.81h-8.55Z"/>
  </g>
  <polygon class="cls-1" points="194.5 0 60 0 0 25.25 254.5 25.25 194.5 0"/>
  <g>
    <path class="cls-1" d="M63.01,40.24c0,7.85-4.73,14.21-10.56,14.21s-10.56-6.36-10.56-14.21h21.12Z"/>
    <path class="cls-1" d="M84.12,40.24c0,7.85-4.73,14.21-10.56,14.21s-10.56-6.36-10.56-14.21h21.12Z"/>
    <path class="cls-1" d="M105.24,40.24c0,7.85-4.73,14.21-10.56,14.21s-10.56-6.36-10.56-14.21h21.12Z"/>
    <path class="cls-1" d="M126.36,40.24c0,7.85-4.73,14.21-10.56,14.21s-10.56-6.36-10.56-14.21h21.12Z"/>
    <path class="cls-1" d="M147.48,40.24c0,7.85-4.73,14.21-10.56,14.21s-10.56-6.36-10.56-14.21h21.12Z"/>
    <path class="cls-1" d="M168.6,40.24c0,7.85-4.73,14.21-10.56,14.21s-10.56-6.36-10.56-14.21h21.12Z"/>
    <path class="cls-1" d="M189.71,40.24c0,7.85-4.73,14.21-10.56,14.21s-10.56-6.36-10.56-14.21h21.12Z"/>
    <path class="cls-1" d="M210.83,40.24c0,7.85-4.73,14.21-10.56,14.21s-10.56-6.36-10.56-14.21h21.12Z"/>
  </g>
</svg>